<svg width="20" height="20" viewBox="0 0 20 20" fill="none" xmlns="http://www.w3.org/2000/svg">
<path fill-rule="evenodd" clip-rule="evenodd" d="M10 1.66675C14.6024 1.66675 18.3334 5.39769 18.3334 10.0001C18.3334 14.6024 14.6024 18.3334 10 18.3334C5.39766 18.3334 1.66669 14.6025 1.66669 10.0001C1.66669 5.39769 5.39766 1.66675 10 1.66675ZM10.8352 9.16675H9.16852V14.1667H10.8352V9.16675ZM10.0085 5.62507C9.40091 5.62507 8.96016 6.06335 8.96016 6.65519C8.96016 7.27097 9.38931 7.70843 10.0085 7.70843C10.6036 7.70843 11.0435 7.27093 11.0435 6.66675C11.0435 6.06339 10.6036 5.62507 10.0085 5.62507Z" fill="#FF8800"/>
</svg>
