<svg width="20" height="20" viewBox="0 0 20 20" fill="none" xmlns="http://www.w3.org/2000/svg">
<g clip-path="url(#clip0_42_672)">
<path fill-rule="evenodd" clip-rule="evenodd" d="M4.66668 0C4.13624 0 3.62754 0.210714 3.25246 0.585786C2.87739 0.960859 2.66668 1.46957 2.66668 2V5.33333H1.33334V6.66667H2.66668V13.3333H1.33334V14.6667H2.66668V18C2.66668 18.5304 2.87739 19.0391 3.25246 19.4142C3.62754 19.7893 4.13624 20 4.66668 20H16.6667C17.1971 20 17.7058 19.7893 18.0809 19.4142C18.456 19.0391 18.6667 18.5304 18.6667 18V2C18.6667 1.46957 18.456 0.960859 18.0809 0.585786C17.7058 0.210714 17.1971 0 16.6667 0L4.66668 0ZM8.00001 6.66667C8.00001 5.95942 8.28096 5.28115 8.78106 4.78105C9.28116 4.28095 9.95943 4 10.6667 4C11.3739 4 12.0522 4.28095 12.5523 4.78105C13.0524 5.28115 13.3333 5.95942 13.3333 6.66667C13.3333 7.37391 13.0524 8.05219 12.5523 8.55229C12.0522 9.05238 11.3739 9.33333 10.6667 9.33333C9.95943 9.33333 9.28116 9.05238 8.78106 8.55229C8.28096 8.05219 8.00001 7.37391 8.00001 6.66667ZM6.66668 14.6667C6.66668 13.6058 7.0881 12.5884 7.83825 11.8382C8.5884 11.0881 9.60581 10.6667 10.6667 10.6667C11.7275 10.6667 12.745 11.0881 13.4951 11.8382C14.2453 12.5884 14.6667 13.6058 14.6667 14.6667V16H6.66668V14.6667Z" fill="#FF8800"/>
</g>
<defs>
<clipPath id="clip0_42_672">
<rect width="20" height="20" fill="white"/>
</clipPath>
</defs>
</svg>
