<svg width="20" height="20" viewBox="0 0 20 20" fill="none" xmlns="http://www.w3.org/2000/svg">
<path d="M3.33336 8.33333L2.7442 8.9225L2.15503 8.33333L2.7442 7.74417L3.33336 8.33333ZM17.5 15C17.5 15.221 17.4122 15.433 17.256 15.5893C17.0997 15.7455 16.8877 15.8333 16.6667 15.8333C16.4457 15.8333 16.2337 15.7455 16.0774 15.5893C15.9212 15.433 15.8334 15.221 15.8334 15H17.5ZM6.91086 13.0892L2.7442 8.9225L3.92253 7.74417L8.0892 11.9108L6.91086 13.0892ZM2.7442 7.74417L6.91086 3.5775L8.0892 4.75583L3.92253 8.9225L2.7442 7.74417ZM3.33336 7.5H11.6667V9.16667H3.33336V7.5ZM17.5 13.3333V15H15.8334V13.3333H17.5ZM11.6667 7.5C13.2138 7.5 14.6975 8.11458 15.7915 9.20854C16.8854 10.3025 17.5 11.7862 17.5 13.3333H15.8334C15.8334 12.2283 15.3944 11.1685 14.613 10.3871C13.8316 9.60565 12.7718 9.16667 11.6667 9.16667V7.5Z" fill="black"/>
</svg>
