<svg width="26" height="26" viewBox="0 0 26 26" fill="none" xmlns="http://www.w3.org/2000/svg">
<path d="M20.25 20.5C20.913 20.5 21.5489 20.7634 22.0178 21.2322C22.4866 21.7011 22.75 22.337 22.75 23C22.75 23.663 22.4866 24.2989 22.0178 24.7678C21.5489 25.2366 20.913 25.5 20.25 25.5C19.587 25.5 18.9511 25.2366 18.4822 24.7678C18.0134 24.2989 17.75 23.663 17.75 23C17.75 21.6125 18.8625 20.5 20.25 20.5ZM0.25 0.5H4.3375L5.5125 3H24C24.3315 3 24.6495 3.1317 24.8839 3.36612C25.1183 3.60054 25.25 3.91848 25.25 4.25C25.25 4.4625 25.1875 4.675 25.1 4.875L20.625 12.9625C20.2 13.725 19.375 14.25 18.4375 14.25H9.125L8 16.2875L7.9625 16.4375C7.9625 16.5204 7.99542 16.5999 8.05403 16.6585C8.11263 16.7171 8.19212 16.75 8.275 16.75H22.75V19.25H7.75C7.08696 19.25 6.45107 18.9866 5.98223 18.5178C5.51339 18.0489 5.25 17.413 5.25 16.75C5.25 16.3125 5.3625 15.9 5.55 15.55L7.25 12.4875L2.75 3H0.25V0.5ZM7.75 20.5C8.41304 20.5 9.04893 20.7634 9.51777 21.2322C9.98661 21.7011 10.25 22.337 10.25 23C10.25 23.663 9.98661 24.2989 9.51777 24.7678C9.04893 25.2366 8.41304 25.5 7.75 25.5C7.08696 25.5 6.45107 25.2366 5.98223 24.7678C5.51339 24.2989 5.25 23.663 5.25 23C5.25 21.6125 6.3625 20.5 7.75 20.5ZM19 11.75L22.475 5.5H6.675L9.625 11.75H19Z" fill="#FDCC03"/>
</svg>
