<svg width="26" height="24" viewBox="0 0 26 24" fill="none" xmlns="http://www.w3.org/2000/svg">
<path d="M21.4 15.4501C21.8375 14.3876 22.075 13.2501 22.075 12.0001C22.075 11.1001 21.9375 10.2376 21.7 9.43762C20.8875 9.62512 20.0375 9.72512 19.15 9.72512C17.3325 9.72707 15.5411 9.29202 13.9269 8.45664C12.3127 7.62127 10.923 6.41006 9.875 4.92512C8.75495 7.63854 6.63965 9.82092 3.9625 11.0251C3.9125 11.3376 3.9125 11.6751 3.9125 12.0001C3.9125 13.1935 4.14756 14.3752 4.60424 15.4778C5.06093 16.5803 5.73031 17.5821 6.57417 18.4259C8.2784 20.1302 10.5898 21.0876 13 21.0876C14.3125 21.0876 15.575 20.8001 16.7125 20.2876C17.425 21.6501 17.75 22.3251 17.725 22.3251C15.675 23.0126 14.0875 23.3501 13 23.3501C9.975 23.3501 7.0875 22.1626 4.9625 20.0251C3.66881 18.7375 2.70784 17.1545 2.1625 15.4126H0.5V9.72512H1.8625C2.2753 7.71576 3.22437 5.85563 4.60899 4.34211C5.99361 2.82858 7.76214 1.71813 9.72691 1.12856C11.6917 0.539003 13.7794 0.492331 15.7686 0.9935C17.7577 1.49467 19.5741 2.52498 21.025 3.97512C22.5997 5.54459 23.6741 7.54547 24.1125 9.72512H25.5V15.4126H25.425L20.975 19.5001L14.35 18.7501V16.6626H20.3875L21.4 15.4501ZM9.5875 11.7126C9.9625 11.7126 10.325 11.8626 10.5875 12.1376C10.8513 12.4036 10.9993 12.763 10.9993 13.1376C10.9993 13.5122 10.8513 13.8717 10.5875 14.1376C10.325 14.4001 9.9625 14.5501 9.5875 14.5501C8.8 14.5501 8.1625 13.9251 8.1625 13.1376C8.1625 12.3501 8.8 11.7126 9.5875 11.7126ZM16.4 11.7126C17.1875 11.7126 17.8125 12.3501 17.8125 13.1376C17.8125 13.9251 17.1875 14.5501 16.4 14.5501C15.6125 14.5501 14.975 13.9251 14.975 13.1376C14.975 12.7597 15.1251 12.3972 15.3924 12.13C15.6596 11.8627 16.0221 11.7126 16.4 11.7126Z" fill="#FDCC03"/>
</svg>
