<svg width="15" height="18" viewBox="0 0 15 18" fill="none" xmlns="http://www.w3.org/2000/svg">
<path d="M8 17.3334L7.79167 14.8334H7.58333C5.61111 14.8334 3.9375 14.1459 2.5625 12.7709C1.1875 11.3959 0.5 9.7223 0.5 7.75008C0.5 5.77786 1.1875 4.10425 2.5625 2.72925C3.9375 1.35425 5.61111 0.666748 7.58333 0.666748C8.56944 0.666748 9.48972 0.850637 10.3442 1.21841C11.1986 1.58619 11.9486 2.09314 12.5942 2.73925C13.2397 3.38536 13.7464 4.13536 14.1142 4.98925C14.4819 5.84314 14.6661 6.76341 14.6667 7.75008C14.6667 8.79175 14.4967 9.79175 14.1567 10.7501C13.8167 11.7084 13.3511 12.5973 12.76 13.4167C12.1689 14.2362 11.4675 14.9792 10.6558 15.6459C9.84417 16.3126 8.95889 16.8751 8 17.3334ZM7.5625 12.3126C7.79861 12.3126 8 12.2292 8.16667 12.0626C8.33333 11.8959 8.41667 11.6945 8.41667 11.4584C8.41667 11.2223 8.33333 11.0209 8.16667 10.8542C8 10.6876 7.79861 10.6042 7.5625 10.6042C7.32639 10.6042 7.125 10.6876 6.95833 10.8542C6.79167 11.0209 6.70833 11.2223 6.70833 11.4584C6.70833 11.6945 6.79167 11.8959 6.95833 12.0626C7.125 12.2292 7.32639 12.3126 7.5625 12.3126ZM6.95833 9.66675H8.20833C8.20833 9.25008 8.25 8.95841 8.33333 8.79175C8.41667 8.62508 8.68056 8.31953 9.125 7.87508C9.375 7.62508 9.58333 7.35425 9.75 7.06258C9.91667 6.77091 10 6.45841 10 6.12508C10 5.41675 9.76056 4.88536 9.28167 4.53091C8.80278 4.17647 8.23667 3.99953 7.58333 4.00008C6.97222 4.00008 6.45833 4.17036 6.04167 4.51091C5.625 4.85147 5.33333 5.26453 5.16667 5.75008L6.33333 6.20841C6.40278 5.9723 6.53472 5.7398 6.72917 5.51091C6.92361 5.28203 7.20833 5.1673 7.58333 5.16675C7.95833 5.16619 8.23972 5.27036 8.4275 5.47925C8.61528 5.68814 8.70889 5.9173 8.70833 6.16675C8.70833 6.40286 8.63889 6.6148 8.5 6.80258C8.36111 6.99036 8.19444 7.18119 8 7.37508C7.51389 7.79175 7.21889 8.12175 7.115 8.36508C7.01111 8.60841 6.95889 9.0423 6.95833 9.66675Z" fill="#FF8800"/>
</svg>
