<svg width="20" height="20" viewBox="0 0 20 20" fill="none" xmlns="http://www.w3.org/2000/svg">
<path d="M16.308 4.53316C17.0718 5.30008 17.5006 6.33838 17.5006 7.42076C17.5006 8.50315 17.0718 9.54145 16.308 10.3084L9.99999 16.6668L3.69199 10.308C3.12461 9.73688 2.7383 9.0111 2.58143 8.22151C2.42456 7.43192 2.5041 6.6136 2.81008 5.86899C3.11607 5.12439 3.63491 4.48659 4.30165 4.03546C4.96839 3.58432 5.75339 3.33989 6.55839 3.33276C7.63474 3.339 8.66502 3.77032 9.42479 4.53276C9.64655 4.75233 9.8398 4.99894 9.99999 5.26676C10.1602 4.99908 10.3535 4.75261 10.5752 4.53316C10.9496 4.15311 11.3959 3.8513 11.888 3.64529C12.3801 3.43929 12.9083 3.3332 13.4418 3.3332C13.9753 3.3332 14.5035 3.43929 14.9956 3.64529C15.4877 3.8513 15.9336 4.15311 16.308 4.53316Z" fill="#FF8800" stroke="#FF8800" stroke-linecap="round" stroke-linejoin="round"/>
</svg>
