<svg width="30" height="30" viewBox="0 0 30 30" fill="none" xmlns="http://www.w3.org/2000/svg">
<path fill-rule="evenodd" clip-rule="evenodd" d="M20.3125 4.6875V6.8L22.8125 8.8V4.6875H20.3125ZM24.6875 10.3V4.375C24.6875 3.5125 23.9875 2.8125 23.125 2.8125H20C19.1375 2.8125 18.4375 3.5125 18.4375 4.375V5.3L17.9288 4.8925C17.0975 4.22733 16.0646 3.86493 15 3.86493C13.9354 3.86493 12.9025 4.22733 12.0712 4.8925L1.915 13.0175C1.72073 13.1728 1.59611 13.3989 1.56857 13.6461C1.54103 13.8933 1.61281 14.1414 1.76812 14.3356C1.92344 14.5299 2.14957 14.6545 2.39677 14.6821C2.64397 14.7096 2.89198 14.6378 3.08625 14.4825L4.0625 13.7V26.5625H2.5C2.25136 26.5625 2.0129 26.6613 1.83709 26.8371C1.66127 27.0129 1.5625 27.2514 1.5625 27.5C1.5625 27.7486 1.66127 27.9871 1.83709 28.1629C2.0129 28.3387 2.25136 28.4375 2.5 28.4375H27.5C27.7486 28.4375 27.9871 28.3387 28.1629 28.1629C28.3387 27.9871 28.4375 27.7486 28.4375 27.5C28.4375 27.2514 28.3387 27.0129 28.1629 26.8371C27.9871 26.6613 27.7486 26.5625 27.5 26.5625H25.9375V13.7L26.915 14.4825C27.1096 14.6341 27.3561 14.703 27.6011 14.6741C27.8461 14.6452 28.0699 14.5208 28.2238 14.3281C28.3778 14.1353 28.4495 13.8896 28.4235 13.6443C28.3976 13.3989 28.2759 13.1737 28.085 13.0175L24.6875 10.3ZM24.0625 12.2L16.7575 6.35625C16.2587 5.95702 15.6389 5.73951 15 5.73951C14.3611 5.73951 13.7413 5.95702 13.2425 6.35625L5.9375 12.2V26.5625H10.3125V21.1875C10.3125 20.3575 10.3125 19.6412 10.39 19.0675C10.4725 18.4525 10.6588 17.8638 11.1363 17.3863C11.6138 16.9088 12.2037 16.7225 12.8175 16.64C13.3912 16.5625 14.1075 16.5625 14.9388 16.5625H15.0612C15.8925 16.5625 16.6088 16.5625 17.1825 16.64C17.7975 16.7225 18.3862 16.9088 18.8638 17.3863C19.3412 17.8638 19.5275 18.4525 19.61 19.0675C19.6875 19.6412 19.6875 20.3575 19.6875 21.1888V26.5625H24.0625V12.2ZM17.8125 26.5625V21.25C17.8125 20.34 17.81 19.75 17.7525 19.3175C17.6975 18.9113 17.61 18.7838 17.5375 18.7125C17.465 18.6413 17.3387 18.5525 16.9325 18.4975C16.4987 18.44 15.91 18.4375 15 18.4375C14.09 18.4375 13.5 18.44 13.0675 18.4975C12.6613 18.5525 12.5338 18.6413 12.4625 18.7125C12.3913 18.7838 12.3025 18.9113 12.2475 19.3175C12.19 19.7513 12.1875 20.34 12.1875 21.25V26.5625H17.8125ZM15 10.3125C14.7948 10.3125 14.5916 10.3529 14.4021 10.4314C14.2125 10.51 14.0402 10.6251 13.8951 10.7701C13.7501 10.9152 13.635 11.0875 13.5564 11.2771C13.4779 11.4666 13.4375 11.6698 13.4375 11.875C13.4375 12.0802 13.4779 12.2834 13.5564 12.4729C13.635 12.6625 13.7501 12.8348 13.8951 12.9799C14.0402 13.1249 14.2125 13.24 14.4021 13.3186C14.5916 13.3971 14.7948 13.4375 15 13.4375C15.4144 13.4375 15.8118 13.2729 16.1049 12.9799C16.3979 12.6868 16.5625 12.2894 16.5625 11.875C16.5625 11.4606 16.3979 11.0632 16.1049 10.7701C15.8118 10.4771 15.4144 10.3125 15 10.3125ZM11.5625 11.875C11.5625 10.9633 11.9247 10.089 12.5693 9.44432C13.214 8.79966 14.0883 8.4375 15 8.4375C15.9117 8.4375 16.786 8.79966 17.4307 9.44432C18.0753 10.089 18.4375 10.9633 18.4375 11.875C18.4375 12.7867 18.0753 13.661 17.4307 14.3057C16.786 14.9503 15.9117 15.3125 15 15.3125C14.0883 15.3125 13.214 14.9503 12.5693 14.3057C11.9247 13.661 11.5625 12.7867 11.5625 11.875Z" fill="#FDCC03"/>
</svg>
