<svg width="16" height="19" viewBox="0 0 16 19" fill="none" xmlns="http://www.w3.org/2000/svg">
<path d="M15.5 14.8334V15.6667H0.5V14.8334L2.16667 13.1667V8.16675C2.16667 5.58341 3.85833 3.30841 6.33333 2.57508V2.33341C6.33333 1.89139 6.50893 1.46746 6.82149 1.1549C7.13405 0.842343 7.55797 0.666748 8 0.666748C8.44203 0.666748 8.86595 0.842343 9.17851 1.1549C9.49107 1.46746 9.66667 1.89139 9.66667 2.33341V2.57508C12.1417 3.30841 13.8333 5.58341 13.8333 8.16675V13.1667L15.5 14.8334ZM9.66667 16.5001C9.66667 16.9421 9.49107 17.366 9.17851 17.6786C8.86595 17.9912 8.44203 18.1667 8 18.1667C7.55797 18.1667 7.13405 17.9912 6.82149 17.6786C6.50893 17.366 6.33333 16.9421 6.33333 16.5001" fill="#FF8800"/>
</svg>
