<svg width="20" height="20" viewBox="0 0 20 20" fill="none" xmlns="http://www.w3.org/2000/svg">
<path d="M4.99998 1.66675H6.74332L4.99499 6.66675H1.98499L4.25499 2.12675C4.32426 1.9885 4.43063 1.87226 4.5622 1.79102C4.69377 1.70978 4.84535 1.66675 4.99998 1.66675ZM2.04499 8.33342L7.06832 16.1451L4.94999 8.33342H2.04499ZM6.67665 8.33342L9.22665 17.7418C9.27184 17.9124 9.37219 18.0633 9.51206 18.1709C9.65194 18.2786 9.82348 18.3369 9.99998 18.3369C10.1765 18.3369 10.348 18.2786 10.4879 18.1709C10.6278 18.0633 10.7281 17.9124 10.7733 17.7418L13.33 8.33342H6.67665ZM15.0567 8.33342L12.9333 16.1418L17.955 8.33342H15.0567ZM18.015 6.66675H15.01L13.26 1.66675H15C15.1549 1.66645 15.3068 1.70933 15.4387 1.79058C15.5706 1.87184 15.6772 1.98825 15.7467 2.12675L18.015 6.66675ZM13.245 6.66675H6.76165L8.50832 1.66675H11.4917L13.245 6.66675Z" fill="#FF8800"/>
</svg>
