<svg width="24" height="24" viewBox="0 0 24 24" fill="none" xmlns="http://www.w3.org/2000/svg">
<path d="M19 7C19 9.761 15.866 12 12 12C8.134 12 5 9.761 5 7C5 4.239 8.134 2 12 2C15.866 2 19 4.239 19 7ZM18.62 10.37C17.18 11.958 14.752 13 12 13C9.248 13 6.82 11.957 5.38 10.37C5.13182 10.8777 5.0019 11.4349 5 12C5 14.761 8.134 17 12 17C15.866 17 19 14.761 19 12C19 11.43 18.866 10.881 18.62 10.37ZM18.62 15.37C17.18 16.958 14.752 18 12 18C9.248 18 6.82 16.957 5.38 15.37C5.13182 15.8777 5.0019 16.4349 5 17C5 19.761 8.134 22 12 22C15.866 22 19 19.761 19 17C19 16.43 18.866 15.881 18.62 15.37Z" fill="#FF8800"/>
</svg>
