<svg width="18" height="18" viewBox="0 0 18 18" fill="none" xmlns="http://www.w3.org/2000/svg">
<path fill-rule="evenodd" clip-rule="evenodd" d="M3.5 0C3.23478 0 2.98043 0.105357 2.79289 0.292893C2.60536 0.48043 2.5 0.734783 2.5 1V1.5H0V11H11V1.5H8.5V1C8.5 0.734783 8.39464 0.48043 8.20711 0.292893C8.01957 0.105357 7.76522 0 7.5 0H3.5ZM7.5 6C7.76522 6 8.01957 5.89464 8.20711 5.70711C8.39464 5.51957 8.5 5.26522 8.5 5V4.5H10V10H7.5V7H3.5V10H1V4.5H2.5V5C2.5 5.26522 2.60536 5.51957 2.79289 5.70711C2.98043 5.89464 3.23478 6 3.5 6H7.5ZM1 2.5H2.5V3.5H1V2.5ZM10 3.5H8.5V2.5H10V3.5ZM6.5 8V10H4.5V8H6.5ZM5 1V2.5H3.5V3.5H5V5H6V3.5H7.5V2.5H6V1H5Z" fill="#FF8800"/>
<path d="M12 10.5C12 9.96957 12.2107 9.46086 12.5858 9.08579C12.9608 8.71071 13.4696 8.5 14 8.5C14.5304 8.5 15.0391 8.71071 15.4142 9.08579C15.7893 9.46086 16 9.96957 16 10.5C16 11.0304 15.7893 11.5391 15.4142 11.9142C15.0391 12.2893 14.5304 12.5 14 12.5C13.4696 12.5 12.9608 12.2893 12.5858 11.9142C12.2107 11.5391 12 11.0304 12 10.5ZM14 13.5C12.665 13.5 9.99998 14.231 9.99998 15.682V17H5.49998C5.13548 17 4.89898 16.8685 4.74848 16.699C4.58998 16.5205 4.49998 16.2685 4.49998 16V14.207L6.14648 15.8535L6.85348 15.1465L3.99998 12.293L1.14648 15.1465L1.85348 15.8535L3.49998 14.207V16C3.49998 16.4815 3.65998 16.9795 4.00148 17.3635C4.35098 17.7565 4.86448 18 5.49998 18H18V15.682C18 14.231 15.335 13.5 14 13.5Z" fill="#FF8800"/>
</svg>
