<svg width="22" height="22" viewBox="0 0 22 22" fill="none" xmlns="http://www.w3.org/2000/svg">
<path fill-rule="evenodd" clip-rule="evenodd" d="M11 1.37501C9.23817 1.37623 7.50261 1.47615 5.79333 1.67476C4.42108 1.83426 3.4375 3.01309 3.4375 4.36059V19.9375C3.43753 20.0499 3.4651 20.1605 3.5178 20.2598C3.57051 20.359 3.64674 20.4439 3.73982 20.5068C3.8329 20.5698 3.94 20.609 4.05174 20.6209C4.16347 20.6329 4.27644 20.6173 4.38075 20.5755L7.5625 19.3032L10.7452 20.5755C10.9088 20.6408 11.0912 20.6408 11.2548 20.5755L14.4375 19.3032L17.6193 20.5755C17.7236 20.6173 17.8365 20.6329 17.9483 20.6209C18.06 20.609 18.1671 20.5698 18.2602 20.5068C18.3533 20.4439 18.4295 20.359 18.4822 20.2598C18.5349 20.1605 18.5625 20.0499 18.5625 19.9375V4.36059C18.5625 3.01309 17.5789 1.83426 16.2067 1.67476C14.4784 1.47408 12.7399 1.374 11 1.37501ZM10.1108 7.36084C10.1784 7.2979 10.2326 7.222 10.2701 7.13767C10.3077 7.05333 10.3279 6.9623 10.3295 6.86999C10.3312 6.77768 10.3142 6.68598 10.2796 6.60038C10.245 6.51477 10.1936 6.43701 10.1283 6.37172C10.063 6.30644 9.98524 6.25497 9.89963 6.22039C9.81403 6.18582 9.72233 6.16884 9.63002 6.17046C9.53771 6.17209 9.44667 6.1923 9.36234 6.22987C9.27801 6.26745 9.20211 6.32163 9.13917 6.38917L7.07667 8.45167C6.94792 8.58058 6.87561 8.75532 6.87561 8.93751C6.87561 9.1197 6.94792 9.29443 7.07667 9.42334L9.13917 11.4858C9.20211 11.5534 9.27801 11.6076 9.36234 11.6451C9.44667 11.6827 9.53771 11.7029 9.63002 11.7045C9.72233 11.7062 9.81403 11.6892 9.89963 11.6546C9.98524 11.62 10.063 11.5686 10.1283 11.5033C10.1936 11.438 10.245 11.3602 10.2796 11.2746C10.3142 11.189 10.3312 11.0973 10.3295 11.005C10.3279 10.9127 10.3077 10.8217 10.2701 10.7373C10.2326 10.653 10.1784 10.5771 10.1108 10.5142L9.22167 9.62501H12.0312C12.4871 9.62501 12.9243 9.80609 13.2466 10.1284C13.5689 10.4507 13.75 10.8879 13.75 11.3438C13.75 11.7996 13.5689 12.2368 13.2466 12.5591C12.9243 12.8814 12.4871 13.0625 12.0312 13.0625H11C10.8177 13.0625 10.6428 13.1349 10.5139 13.2639C10.3849 13.3928 10.3125 13.5677 10.3125 13.75C10.3125 13.9323 10.3849 14.1072 10.5139 14.2361C10.6428 14.3651 10.8177 14.4375 11 14.4375H12.0312C12.4375 14.4375 12.8398 14.3575 13.2152 14.202C13.5905 14.0465 13.9316 13.8187 14.2189 13.5314C14.5061 13.2441 14.734 12.903 14.8895 12.5277C15.045 12.1523 15.125 11.75 15.125 11.3438C15.125 10.9375 15.045 10.5352 14.8895 10.1598C14.734 9.78448 14.5061 9.44343 14.2189 9.15615C13.9316 8.86887 13.5905 8.64098 13.2152 8.4855C12.8398 8.33003 12.4375 8.25001 12.0312 8.25001H9.22258L10.1108 7.36084Z" fill="#FF8800"/>
</svg>
