<svg width="20" height="20" viewBox="0 0 20 20" fill="none" xmlns="http://www.w3.org/2000/svg">
<path d="M10 0C15.523 0 20 4.477 20 10C20 15.523 15.523 20 10 20C4.477 20 0 15.523 0 10C0 4.477 4.477 0 10 0ZM7.086 11.399L6.986 11.403C6.8969 11.4134 6.81075 11.4413 6.73249 11.4852C6.65423 11.529 6.58542 11.5879 6.53002 11.6585C6.47463 11.729 6.43373 11.8098 6.4097 11.8962C6.38567 11.9827 6.37897 12.073 6.39 12.162C6.49773 13.0413 6.92271 13.8511 7.58517 14.4394C8.24762 15.0276 9.102 15.3538 9.98792 15.3567C10.8738 15.3597 11.7304 15.0392 12.3967 14.4554C13.0631 13.8716 13.4934 13.0646 13.607 12.186C13.6222 12.0105 13.5689 11.836 13.4583 11.6989C13.3477 11.5618 13.1883 11.4729 13.0136 11.4507C12.8389 11.4284 12.6623 11.4747 12.5209 11.5797C12.3795 11.6847 12.2842 11.8403 12.255 12.014C12.1847 12.5636 11.916 13.0686 11.4995 13.4341C11.0831 13.7995 10.5474 14.0003 9.99332 13.9986C9.43922 13.9968 8.90484 13.7928 8.49062 13.4247C8.07641 13.0567 7.8109 12.55 7.744 12C7.7336 11.9109 7.70567 11.8247 7.66183 11.7465C7.61799 11.6682 7.5591 11.5994 7.48855 11.544C7.418 11.4886 7.33719 11.4477 7.25076 11.4237C7.16434 11.3997 7.07402 11.393 6.985 11.404L7.086 11.399ZM5.814 6.279C5.44402 6.279 5.0892 6.42597 4.82759 6.68759C4.56597 6.9492 4.419 7.30402 4.419 7.674C4.419 8.04398 4.56597 8.3988 4.82759 8.66041C5.0892 8.92203 5.44402 9.069 5.814 9.069C6.18398 9.069 6.5388 8.92203 6.80041 8.66041C7.06203 8.3988 7.209 8.04398 7.209 7.674C7.209 7.30402 7.06203 6.9492 6.80041 6.68759C6.5388 6.42597 6.18398 6.279 5.814 6.279ZM14.186 6.279C13.816 6.279 13.4612 6.42597 13.1996 6.68759C12.938 6.9492 12.791 7.30402 12.791 7.674C12.791 8.04398 12.938 8.3988 13.1996 8.66041C13.4612 8.92203 13.816 9.069 14.186 9.069C14.556 9.069 14.9108 8.92203 15.1724 8.66041C15.434 8.3988 15.581 8.04398 15.581 7.674C15.581 7.30402 15.434 6.9492 15.1724 6.68759C14.9108 6.42597 14.556 6.279 14.186 6.279Z" fill="#FF8800"/>
</svg>
