<svg width="20" height="20" viewBox="0 0 20 20" fill="none" xmlns="http://www.w3.org/2000/svg">
<path d="M10 8.33341C10.8841 8.33341 11.7319 7.98223 12.357 7.3571C12.9822 6.73198 13.3334 5.88414 13.3334 5.00008C13.3334 4.11603 12.9822 3.26818 12.357 2.64306C11.7319 2.01794 10.8841 1.66675 10 1.66675C9.11597 1.66675 8.26812 2.01794 7.643 2.64306C7.01788 3.26818 6.66669 4.11603 6.66669 5.00008C6.66669 5.88414 7.01788 6.73198 7.643 7.3571C8.26812 7.98223 9.11597 8.33341 10 8.33341ZM4.58335 10.8334C5.13589 10.8334 5.66579 10.6139 6.05649 10.2232C6.44719 9.83252 6.66669 9.30262 6.66669 8.75008C6.66669 8.19755 6.44719 7.66764 6.05649 7.27694C5.66579 6.88624 5.13589 6.66675 4.58335 6.66675C4.03082 6.66675 3.50092 6.88624 3.11021 7.27694C2.71951 7.66764 2.50002 8.19755 2.50002 8.75008C2.50002 9.30262 2.71951 9.83252 3.11021 10.2232C3.50092 10.6139 4.03082 10.8334 4.58335 10.8334ZM17.5 8.75008C17.5 9.30262 17.2805 9.83252 16.8898 10.2232C16.4991 10.6139 15.9692 10.8334 15.4167 10.8334C14.8642 10.8334 14.3342 10.6139 13.9435 10.2232C13.5528 9.83252 13.3334 9.30262 13.3334 8.75008C13.3334 8.19755 13.5528 7.66764 13.9435 7.27694C14.3342 6.88624 14.8642 6.66675 15.4167 6.66675C15.9692 6.66675 16.4991 6.88624 16.8898 7.27694C17.2805 7.66764 17.5 8.19755 17.5 8.75008ZM10 9.16675C11.1051 9.16675 12.1649 9.60573 12.9463 10.3871C13.7277 11.1685 14.1667 12.2283 14.1667 13.3334V18.3334H5.83335V13.3334C5.83335 12.2283 6.27234 11.1685 7.05374 10.3871C7.83514 9.60573 8.89495 9.16675 10 9.16675ZM4.16669 13.3334C4.16669 12.7559 4.25002 12.1984 4.40669 11.6717L4.26502 11.6834C3.55075 11.7618 2.89057 12.1012 2.41107 12.6363C1.93157 13.1715 1.6665 13.8649 1.66669 14.5834V18.3334H4.16669V13.3334ZM18.3334 18.3334V14.5834C18.3334 13.8404 18.05 13.1253 17.5407 12.5842C17.0315 12.0431 16.335 11.7168 15.5934 11.6717C15.7492 12.1984 15.8334 12.7559 15.8334 13.3334V18.3334H18.3334Z" fill="#FF8800"/>
</svg>
