<svg width="18" height="16" viewBox="0 0 18 16" fill="none" xmlns="http://www.w3.org/2000/svg">
<path fill-rule="evenodd" clip-rule="evenodd" d="M16.5834 4.66998C16.5361 4.6672 16.4859 4.66609 16.4325 4.66664H14.3284C12.605 4.66664 11.1309 6.02331 11.1309 7.79164C11.1309 9.55998 12.6059 10.9166 14.3284 10.9166H16.4325C16.4859 10.9172 16.5364 10.9161 16.5842 10.9133C16.9384 10.892 17.2727 10.7426 17.5249 10.493C17.7771 10.2434 17.93 9.91059 17.955 9.55664C17.9584 9.50664 17.9584 9.45248 17.9584 9.40248V6.18081C17.9584 6.13081 17.9584 6.07664 17.955 6.02664C17.93 5.6727 17.7771 5.33992 17.5249 5.09032C17.2727 4.84073 16.9375 4.69133 16.5834 4.66998ZM14.1442 8.62498C14.5875 8.62498 14.9467 8.25164 14.9467 7.79164C14.9467 7.33164 14.5875 6.95831 14.1442 6.95831C13.7 6.95831 13.3409 7.33164 13.3409 7.79164C13.3409 8.25164 13.7 8.62498 14.1442 8.62498Z" fill="#FF8800"/>
<path fill-rule="evenodd" clip-rule="evenodd" d="M16.4317 12.1667C16.4605 12.1655 16.4892 12.1712 16.5154 12.1832C16.5416 12.1952 16.5646 12.2132 16.5826 12.2358C16.6005 12.2583 16.6129 12.2848 16.6187 12.3131C16.6244 12.3413 16.6235 12.3705 16.6159 12.3983C16.4492 12.9917 16.1834 13.4983 15.7575 13.9233C15.1334 14.5483 14.3425 14.8242 13.3659 14.9558C12.4159 15.0833 11.2034 15.0833 9.67169 15.0833H7.91169C6.38002 15.0833 5.16669 15.0833 4.21752 14.9558C3.24085 14.8242 2.45002 14.5475 1.82585 13.9242C1.20252 13.3 0.925854 12.5092 0.794187 11.5325C0.666687 10.5825 0.666687 9.37 0.666687 7.83833V7.745C0.666687 6.21333 0.666687 5 0.794187 4.05C0.925854 3.07333 1.20252 2.2825 1.82585 1.65833C2.45002 1.035 3.24085 0.758333 4.21752 0.626667C5.16752 0.5 6.38002 0.5 7.91169 0.5H9.67169C11.2034 0.5 12.4167 0.5 13.3659 0.6275C14.3425 0.759167 15.1334 1.03583 15.7575 1.65917C16.1834 2.08583 16.4492 2.59167 16.6159 3.185C16.6235 3.21281 16.6244 3.24202 16.6187 3.27027C16.6129 3.29851 16.6005 3.325 16.5826 3.34757C16.5646 3.37014 16.5416 3.38816 16.5154 3.40016C16.4892 3.41217 16.4605 3.41782 16.4317 3.41667H14.3284C11.9642 3.41667 9.88085 5.28333 9.88085 7.79167C9.88085 10.3 11.9642 12.1667 14.3284 12.1667H16.4317ZM3.79169 3.83333C3.62593 3.83333 3.46696 3.89918 3.34975 4.01639C3.23253 4.1336 3.16669 4.29257 3.16669 4.45833C3.16669 4.62409 3.23253 4.78306 3.34975 4.90027C3.46696 5.01748 3.62593 5.08333 3.79169 5.08333H7.12502C7.29078 5.08333 7.44975 5.01748 7.56696 4.90027C7.68417 4.78306 7.75002 4.62409 7.75002 4.45833C7.75002 4.29257 7.68417 4.1336 7.56696 4.01639C7.44975 3.89918 7.29078 3.83333 7.12502 3.83333H3.79169Z" fill="#FF8800"/>
</svg>
