<svg width="20" height="20" viewBox="0 0 20 20" fill="none" xmlns="http://www.w3.org/2000/svg">
<path d="M10 1.66675C14.6025 1.66675 18.3333 5.39758 18.3333 10.0001C18.3333 14.6026 14.6025 18.3334 10 18.3334C8.65185 18.3352 7.32357 18.0086 6.13 17.3817L2.555 18.3126C2.43554 18.3437 2.31003 18.343 2.19091 18.3107C2.07178 18.2784 1.96317 18.2155 1.87584 18.1282C1.78852 18.041 1.7255 17.9324 1.69305 17.8133C1.6606 17.6942 1.65983 17.5687 1.69083 17.4492L2.62083 13.8751C1.99236 12.6802 1.66484 11.3501 1.66666 10.0001C1.66666 5.39758 5.3975 1.66675 10 1.66675ZM11.0433 10.8334H7.29166L7.20666 10.8392C7.05707 10.8598 6.91999 10.9339 6.82076 11.0477C6.72152 11.1615 6.66686 11.3074 6.66686 11.4584C6.66686 11.6094 6.72152 11.7553 6.82076 11.8691C6.91999 11.983 7.05707 12.057 7.20666 12.0776L7.29166 12.0834H11.0433L11.1275 12.0776C11.2771 12.057 11.4142 11.983 11.5134 11.8691C11.6126 11.7553 11.6673 11.6094 11.6673 11.4584C11.6673 11.3074 11.6126 11.1615 11.5134 11.0477C11.4142 10.9339 11.2771 10.8598 11.1275 10.8392L11.0433 10.8334ZM12.7083 7.91675H7.29166L7.20666 7.92258C7.05707 7.94316 6.91999 8.01721 6.82076 8.13103C6.72152 8.24485 6.66686 8.39075 6.66686 8.54175C6.66686 8.69275 6.72152 8.83865 6.82076 8.95247C6.91999 9.06629 7.05707 9.14033 7.20666 9.16091L7.29166 9.16675H12.7083L12.7933 9.16091C12.9429 9.14033 13.08 9.06629 13.1792 8.95247C13.2785 8.83865 13.3331 8.69275 13.3331 8.54175C13.3331 8.39075 13.2785 8.24485 13.1792 8.13103C13.08 8.01721 12.9429 7.94316 12.7933 7.92258L12.7083 7.91675Z" fill="#FF8800"/>
</svg>
