<svg width="20" height="16" viewBox="0 0 20 16" fill="none" xmlns="http://www.w3.org/2000/svg">
<path fill-rule="evenodd" clip-rule="evenodd" d="M2.66665 0.666748C2.18042 0.666748 1.7141 0.859902 1.37028 1.20372C1.02647 1.54754 0.833313 2.01385 0.833313 2.50008V10.7501C0.833313 10.9932 0.92989 11.2264 1.1018 11.3983C1.27371 11.5702 1.50686 11.6667 1.74998 11.6667H2.2404C2.17557 12.1217 2.20924 12.5853 2.33913 13.0261C2.46902 13.467 2.6921 13.8748 2.99327 14.2219C3.29445 14.569 3.66668 14.8474 4.08478 15.0382C4.50287 15.2289 4.95708 15.3277 5.41665 15.3277C5.87621 15.3277 6.33042 15.2289 6.74852 15.0382C7.16661 14.8474 7.53885 14.569 7.84002 14.2219C8.14119 13.8748 8.36427 13.467 8.49416 13.0261C8.62406 12.5853 8.65773 12.1217 8.5929 11.6667H11.4071C11.3422 12.1217 11.3759 12.5853 11.5058 13.0261C11.6357 13.467 11.8588 13.8748 12.1599 14.2219C12.4611 14.569 12.8333 14.8474 13.2514 15.0382C13.6695 15.2289 14.1237 15.3277 14.5833 15.3277C15.0429 15.3277 15.4971 15.2289 15.9152 15.0382C16.3333 14.8474 16.7055 14.569 17.0067 14.2219C17.3079 13.8748 17.5309 13.467 17.6608 13.0261C17.7907 12.5853 17.8244 12.1217 17.7596 11.6667H18.25C18.4931 11.6667 18.7263 11.5702 18.8982 11.3983C19.0701 11.2264 19.1666 10.9932 19.1666 10.7501V7.08342C19.1665 6.94114 19.1332 6.80086 19.0695 6.67367L17.2361 3.007C17.1601 2.85476 17.0431 2.7267 16.8984 2.63717C16.7536 2.54764 16.5868 2.50017 16.4166 2.50008H11.8333C11.8333 2.01385 11.6402 1.54754 11.2963 1.20372C10.9525 0.859902 10.4862 0.666748 9.99998 0.666748H2.66665ZM15.676 11.2909L15.6906 11.3092C15.9085 11.6004 16.0021 11.966 15.951 12.326C15.8999 12.686 15.7083 13.0112 15.4181 13.2303C15.1279 13.4494 14.7627 13.5446 14.4025 13.4951C14.0423 13.4456 13.7163 13.2554 13.4959 12.9662C13.2755 12.677 13.1787 12.3122 13.2266 11.9518C13.2745 11.5913 13.4633 11.2645 13.7515 11.0429C14.0398 10.8212 14.4041 10.7228 14.7648 10.7691C15.1254 10.8154 15.4531 11.0027 15.676 11.29V11.2909ZM6.50931 11.2909L6.52398 11.3092C6.7418 11.6004 6.83541 11.966 6.78434 12.326C6.73327 12.686 6.54166 13.0112 6.25146 13.2303C5.96125 13.4494 5.59608 13.5446 5.23584 13.4951C4.87559 13.4456 4.54962 13.2554 4.32925 12.9662C4.10888 12.677 4.01205 12.3122 4.05995 11.9518C4.10786 11.5913 4.29659 11.2645 4.58486 11.0429C4.87312 10.8212 5.23745 10.7228 5.59811 10.7691C5.95877 10.8154 6.2864 11.0027 6.50931 11.29V11.2909ZM11.8315 6.18325V4.33158H15.8611L16.7778 6.18325H11.8315Z" fill="#FF8800"/>
</svg>
