<svg width="16" height="18" viewBox="0 0 16 18" fill="none" xmlns="http://www.w3.org/2000/svg">
<path d="M7.2208 9.307V17.722C7.17172 17.7042 7.12542 17.6795 7.0833 17.6487L1.1158 14.0645C0.848973 13.9111 0.627569 13.6897 0.474138 13.4228C0.314741 13.1442 0.235433 12.827 0.244971 12.5062V5.10867L7.2208 9.307ZM15.755 5.10867V12.5337C15.7429 12.8395 15.658 13.138 15.5075 13.4045C15.3641 13.6781 15.1444 13.9042 14.875 14.0553L8.90747 17.6395L8.77914 17.7037V9.29783L11.7675 7.4645V10.0037C11.7675 10.2103 11.8496 10.4085 11.9957 10.5546C12.1418 10.7007 12.34 10.7828 12.5466 10.7828C12.7533 10.7828 12.9515 10.7007 13.0976 10.5546C13.2437 10.4085 13.3258 10.2103 13.3258 10.0037V6.57533L15.755 5.10867ZM11.0066 6.16283L7.99997 7.99617L0.978305 3.7795L1.07914 3.71533L3.88414 2.22117L11.0066 6.16283ZM15.0125 3.76117L12.5283 5.24617L5.52497 1.32283L7.04664 0.525332C7.32516 0.363767 7.64132 0.278403 7.9633 0.277832C8.28553 0.285298 8.60072 0.373552 8.87997 0.534499L14.8108 3.70617C14.8814 3.70872 14.9504 3.72754 15.0125 3.76117Z" fill="#FF8800"/>
</svg>
